<?xml version="1.0" encoding="UTF-8"?>
<svg version="1.1" xmlns="http://www.w3.org/2000/svg" width="48" height="48">
<path d="M0 0 C0.99 0 1.98 0 3 0 C3.02505615 0.72179443 3.0501123 1.44358887 3.07592773 2.18725586 C3.19151302 5.437535 3.31440774 8.68749688 3.4375 11.9375 C3.47681641 13.07380859 3.51613281 14.21011719 3.55664062 15.38085938 C3.59853516 16.46044922 3.64042969 17.54003906 3.68359375 18.65234375 C3.72025146 19.65257568 3.75690918 20.65280762 3.79467773 21.68334961 C3.74671841 23.96069188 3.74671841 23.96069188 5 25 C6.63472882 25.08700342 8.27314055 25.10701063 9.91015625 25.09765625 C11.39418945 25.09282227 11.39418945 25.09282227 12.90820312 25.08789062 C14.46958008 25.07532227 14.46958008 25.07532227 16.0625 25.0625 C17.10728516 25.05798828 18.15207031 25.05347656 19.22851562 25.04882812 C21.8190666 25.03699913 24.40950559 25.02051689 27 25 C27.66 23.02 28.32 21.04 29 19 C29.99 19 30.98 19 32 19 C32.02689216 20.47906892 32.04634621 21.95827483 32.0625 23.4375 C32.07410156 24.26121094 32.08570313 25.08492187 32.09765625 25.93359375 C32 28 32 28 31 29 C28.79349344 29.10012401 26.58377614 29.1308118 24.375 29.1328125 C23.71290527 29.13376923 23.05081055 29.13472595 22.36865234 29.13571167 C20.96647039 29.13639326 19.5642853 29.13454042 18.16210938 29.13037109 C16.00904287 29.12502246 13.85618498 29.1303167 11.703125 29.13671875 C10.34374954 29.13605796 8.9843742 29.13477679 7.625 29.1328125 C6.37976563 29.13168457 5.13453125 29.13055664 3.8515625 29.12939453 C1 29 1 29 0 28 C-0.08767112 25.92737924 -0.10695873 23.85179706 -0.09765625 21.77734375 C-0.09443359 20.51728516 -0.09121094 19.25722656 -0.08789062 17.95898438 C-0.07953403 16.61848891 -0.07106907 15.27799412 -0.0625 13.9375 C-0.0574866 12.59310058 -0.05292342 11.2486994 -0.04882812 9.90429688 C-0.03699488 6.60282059 -0.02050971 3.30143197 0 0 Z " fill="#000000" transform="translate(8,15)"/>
<path d="M0 0 C0.66209473 -0.00095673 1.32418945 -0.00191345 2.00634766 -0.00289917 C3.40852961 -0.00358076 4.8107147 -0.00172792 6.21289062 0.00244141 C8.36595713 0.00779004 10.51881502 0.0024958 12.671875 -0.00390625 C14.03125046 -0.00324546 15.3906258 -0.00196429 16.75 0 C18.61785156 0.00169189 18.61785156 0.00169189 20.5234375 0.00341797 C23.375 0.1328125 23.375 0.1328125 24.375 1.1328125 C24.46237645 2.98650861 24.48198153 4.84348791 24.47265625 6.69921875 C24.46943359 7.82392578 24.46621094 8.94863281 24.46289062 10.10742188 C24.45032227 11.88342773 24.45032227 11.88342773 24.4375 13.6953125 C24.43298828 14.88318359 24.42847656 16.07105469 24.42382812 17.29492188 C24.41199675 20.24093476 24.39551287 23.18684931 24.375 26.1328125 C23.385 26.1328125 22.395 26.1328125 21.375 26.1328125 C21.34994385 25.50189697 21.3248877 24.87098145 21.29907227 24.22094727 C21.18345863 21.37884425 21.06057684 18.53710167 20.9375 15.6953125 C20.89818359 14.70208984 20.85886719 13.70886719 20.81835938 12.68554688 C20.77646484 11.74130859 20.73457031 10.79707031 20.69140625 9.82421875 C20.65474854 8.94967041 20.61809082 8.07512207 20.58032227 7.17407227 C20.59318934 5.1400723 20.59318934 5.1400723 19.375 4.1328125 C17.74027118 4.04580908 16.10185945 4.02580187 14.46484375 4.03515625 C12.98081055 4.03999023 12.98081055 4.03999023 11.46679688 4.04492188 C10.42587891 4.05330078 9.38496094 4.06167969 8.3125 4.0703125 C6.74532227 4.07708008 6.74532227 4.07708008 5.14648438 4.08398438 C2.5559334 4.09581337 -0.03450559 4.11229561 -2.625 4.1328125 C-3.285 5.7828125 -3.945 7.4328125 -4.625 9.1328125 C-5.615 9.1328125 -6.605 9.1328125 -7.625 9.1328125 C-7.72265625 2.98046875 -7.72265625 2.98046875 -7.625 1.1328125 C-5.74180732 -0.75038018 -2.50569863 0.00226965 0 0 Z " fill="#000000" transform="translate(15.625,3.8671875)"/>
<path d="M0 0 C0.99 0 1.98 0 3 0 C3 7.92 3 15.84 3 24 C2.01 24 1.02 24 0 24 C0 16.08 0 8.16 0 0 Z " fill="#000000" transform="translate(25,12)"/>
<path d="M0 0 C2.64 0 5.28 0 8 0 C8 0.99 8 1.98 8 3 C5.36 3 2.72 3 0 3 C0 2.01 0 1.02 0 0 Z " fill="#000000" transform="translate(14,33)"/>
<path d="M0 0 C2.64 0 5.28 0 8 0 C8 0.99 8 1.98 8 3 C5.36 3 2.72 3 0 3 C0 2.01 0 1.02 0 0 Z " fill="#000000" transform="translate(14,26)"/>
<path d="M0 0 C2.64 0 5.28 0 8 0 C8 0.99 8 1.98 8 3 C5.36 3 2.72 3 0 3 C0 2.01 0 1.02 0 0 Z " fill="#000000" transform="translate(14,19)"/>
<path d="M0 0 C2.64 0 5.28 0 8 0 C8 0.99 8 1.98 8 3 C5.36 3 2.72 3 0 3 C0 2.01 0 1.02 0 0 Z " fill="#000000" transform="translate(14,12)"/>
<path d="M0 0 C0.99 0 1.98 0 3 0 C3 0.99 3 1.98 3 3 C2.01 3 1.02 3 0 3 C0 2.01 0 1.02 0 0 Z " fill="#000000" transform="translate(31,33)"/>
<path d="M0 0 C0.99 0 1.98 0 3 0 C3 0.99 3 1.98 3 3 C2.01 3 1.02 3 0 3 C0 2.01 0 1.02 0 0 Z " fill="#000000" transform="translate(31,26)"/>
<path d="M0 0 C0.99 0 1.98 0 3 0 C3 0.99 3 1.98 3 3 C2.01 3 1.02 3 0 3 C0 2.01 0 1.02 0 0 Z " fill="#000000" transform="translate(31,19)"/>
<path d="M0 0 C0.99 0 1.98 0 3 0 C3 0.99 3 1.98 3 3 C2.01 3 1.02 3 0 3 C0 2.01 0 1.02 0 0 Z " fill="#000000" transform="translate(31,12)"/>
</svg>
